HIERARCHY
ROOT joint_Root
{
	OFFSET 0.0 0.0 0.0
	CHANNELS 6 Xposition Yposition Zposition Zrotation Xrotation Yrotation 
	JOINT Hips
	{
		OFFSET -17.1583 93.1646 452.98
		CHANNELS 6 Xposition Yposition Zposition Zrotation Xrotation Yrotation 
		JOINT Spine
		{
			OFFSET 15.7357 0.0 0.0
			CHANNELS 6 Xposition Yposition Zposition Zrotation Xrotation Yrotation 
			JOINT Chest
			{
				OFFSET 8.98455 -0.406207 0.0
				CHANNELS 6 Xposition Yposition Zposition Zrotation Xrotation Yrotation 
				JOINT Neck
				{
					OFFSET 16.3773 0.0 0.0
					CHANNELS 6 Xposition Yposition Zposition Zrotation Xrotation Yrotation 
					JOINT Head
					{
						OFFSET 6.45672 0.0 0.0
						CHANNELS 6 Xposition Yposition Zposition Zrotation Xrotation Yrotation 
						End Site
						{
							OFFSET 0.0 0.0 0.0
						}
					}
				}
				JOINT Shoulder_L
				{
					OFFSET 12.9942 -0.242716 4.98039
					CHANNELS 6 Xposition Yposition Zposition Zrotation Xrotation Yrotation 
					JOINT UpperArm_L
					{
						OFFSET 5.34809 0.0 0.0
						CHANNELS 6 Xposition Yposition Zposition Zrotation Xrotation Yrotation 
						JOINT LowerArm_L
						{
							OFFSET 24.3286 1.87007e-05 0.0
							CHANNELS 6 Xposition Yposition Zposition Zrotation Xrotation Yrotation 
							JOINT Hand_L
							{
								OFFSET 22.2916 0.0 0.0
								CHANNELS 6 Xposition Yposition Zposition Zrotation Xrotation Yrotation 
								End Site
								{
									OFFSET 0.0 0.0 0.0
								}
							}
						}
					}
				}
				JOINT Shoulder_R
				{
					OFFSET 12.9945 -0.242716 -4.98039
					CHANNELS 6 Xposition Yposition Zposition Zrotation Xrotation Yrotation 
					JOINT UpperArm_R
					{
						OFFSET -5.34813 0.0 0.0
						CHANNELS 6 Xposition Yposition Zposition Zrotation Xrotation Yrotation 
						JOINT LowerArm_R
						{
							OFFSET -24.3289 0.000322201 0.0
							CHANNELS 6 Xposition Yposition Zposition Zrotation Xrotation Yrotation 
							JOINT Hand_R
							{
								OFFSET -22.2915 -0.000108084 0.0
								CHANNELS 6 Xposition Yposition Zposition Zrotation Xrotation Yrotation 
								End Site
								{
									OFFSET 0.0 0.0 0.0
								}
							}
						}
					}
				}
			}
		}
		JOINT UpperLeg_L
		{
			OFFSET -2.19248 -6.46944 0.0
			CHANNELS 6 Xposition Yposition Zposition Zrotation Xrotation Yrotation 
			JOINT LowerLeg_L
			{
				OFFSET 39.0811 0.0 -1.23785e-05
				CHANNELS 6 Xposition Yposition Zposition Zrotation Xrotation Yrotation 
				JOINT Foot_L
				{
					OFFSET 40.9854 0.0 -1.26872e-05
					CHANNELS 6 Xposition Yposition Zposition Zrotation Xrotation Yrotation 
					JOINT Toes_L
					{
						OFFSET 11.7543 0.0 0.0
						CHANNELS 6 Xposition Yposition Zposition Zrotation Xrotation Yrotation 
						End Site
						{
							OFFSET 0.0 0.0 0.0
						}
					}
				}
			}
		}
		JOINT UpperLeg_R
		{
			OFFSET -2.19251 6.46944 0.0
			CHANNELS 6 Xposition Yposition Zposition Zrotation Xrotation Yrotation 
			JOINT LowerLeg_R
			{
				OFFSET -39.0811 -0.00228153 -0.0401928
				CHANNELS 6 Xposition Yposition Zposition Zrotation Xrotation Yrotation 
				JOINT Foot_R
				{
					OFFSET -40.9854 0.0 0.0
					CHANNELS 6 Xposition Yposition Zposition Zrotation Xrotation Yrotation 
					JOINT Toes_R
					{
						OFFSET -11.7543 0.0 0.0
						CHANNELS 6 Xposition Yposition Zposition Zrotation Xrotation Yrotation 
						End Site
						{
							OFFSET 0.0 0.0 0.0
						}
					}
				}
			}
		}
	}
}
MOTION
Frames:	4
Frame Time:	0.0333333
0.000000 0.000000 0.000000 0.000000 0.000000 -0.000000 0.198681 92.973100 -1.454940 86.532400 -2.757320 1.425360 15.735700 0.000005 -0.000001 79.263800 87.127900 -76.904300 8.984550 -0.406207 -0.000000 -2.091910 -1.272650 4.695300 16.377300 -0.000001 -0.000001 5.281780 4.261840 -0.107990 6.456720 -0.000001 -0.000000 3.228820 6.331590 -6.722080 12.994200 -0.242716 4.980390 -92.635100 8.390670 -72.494800 5.348090 -0.000007 -0.000001 -73.609800 30.006600 0.586149 24.328600 0.000019 0.000005 12.939900 28.100600 -26.003000 22.291600 -0.000001 0.000005 -3.598120 5.042080 6.411120 12.994500 -0.242716 -4.980390 88.734400 4.058660 -72.664700 -5.348130 -0.000001 -0.000004 -72.202000 18.871600 -3.153870 -24.328900 0.000322 -0.000009 1.888930 4.776120 -21.619300 -22.291500 -0.000108 -0.000004 3.571560 5.240680 1.677890 -2.192480 -6.469440 -0.000000 -176.743000 -1.813380 -3.045470 39.081100 -0.000007 -0.000012 0.211420 -0.569046 20.382100 40.985400 -0.000006 -0.000013 3.026550 7.793390 -71.194300 11.754300 -0.000000 0.000003 -0.000256 0.171836 -9.607010 -2.192510 6.469440 -0.000001 -175.485000 5.037310 -178.700000 -39.081100 -0.002282 -0.040193 0.031788 -0.123257 12.999300 -40.985400 0.000008 0.000006 -0.709522 5.032890 -68.106600 -11.754300 -0.000006 -0.000006 -0.012217 0.287183 -4.901040
0.000000 0.000000 0.000000 0.000000 0.000000 -0.000000 0.167567 92.965900 -1.510230 86.541100 -2.721610 1.348760 15.735700 0.000005 -0.000001 79.127700 87.129500 -76.775300 8.984550 -0.406207 -0.000000 -2.097650 -1.284920 4.680800 16.377300 -0.000001 -0.000001 5.152930 4.234150 0.011845 6.456720 -0.000001 -0.000000 3.027410 6.351420 -6.600020 12.994200 -0.242716 4.980390 -92.638500 8.376950 -72.447200 5.348090 -0.000007 -0.000001 -73.610400 30.027600 0.509022 24.328600 0.000019 0.000005 12.948500 28.058500 -26.049600 22.291600 -0.000001 0.000005 -3.610190 5.044540 6.357330 12.994500 -0.242716 -4.980390 88.753800 3.994340 -72.656600 -5.348130 -0.000001 -0.000004 -72.115700 17.862500 -2.756350 -24.328900 0.000322 -0.000009 2.016920 4.743890 -23.076100 -22.291500 -0.000108 -0.000004 3.103620 5.233340 1.869270 -2.192480 -6.469440 -0.000000 -176.736000 -1.723480 -3.199330 39.081100 -0.000007 -0.000012 0.212160 -0.568757 20.457100 40.985400 -0.000006 -0.000013 3.007290 7.792280 -71.138600 11.754300 -0.000000 0.000003 -0.000086 0.169053 -9.720030 -2.192510 6.469440 -0.000001 -175.428000 5.144680 -178.829000 -39.081100 -0.002282 -0.040193 0.034574 -0.134878 13.041000 -40.985400 0.000008 0.000006 -0.426884 4.968990 -68.145700 -11.754300 -0.000006 -0.000006 -0.012042 0.285975 -4.950550
0.000000 0.000000 0.000000 0.000000 0.000000 -0.000000 0.129904 92.986400 -1.539570 86.542300 -2.688710 1.377210 15.735700 0.000005 -0.000001 79.174500 87.088300 -76.813800 8.984550 -0.406207 -0.000000 -2.015350 -1.294860 4.698180 16.377300 -0.000001 -0.000001 5.103460 4.173790 0.159301 6.456720 -0.000001 -0.000000 2.594390 6.370650 -6.474260 12.994200 -0.242716 4.980390 -92.639300 8.387520 -72.462400 5.348090 -0.000007 -0.000001 -73.650900 30.013600 0.479495 24.328600 0.000019 0.000005 12.944300 27.951400 -26.121500 22.291600 -0.000001 0.000005 -3.566050 5.043370 6.382960 12.994500 -0.242716 -4.980390 88.764500 3.949940 -72.615400 -5.348130 -0.000001 -0.000004 -71.869100 16.609800 -2.263130 -24.328900 0.000322 -0.000009 2.394800 5.093150 -25.234200 -22.291500 -0.000108 -0.000004 2.552840 5.223970 2.111070 -2.192480 -6.469440 -0.000000 -176.708000 -1.710940 -3.141390 39.081100 -0.000007 -0.000012 0.210313 -0.567093 20.348300 40.985400 -0.000006 -0.000013 2.959640 7.776820 -71.139100 11.754300 -0.000000 0.000003 -0.000321 0.172858 -9.565510 -2.192510 6.469440 -0.000001 -175.439000 5.131270 -178.780000 -39.081100 -0.002282 -0.040193 0.031198 -0.121252 12.942200 -40.985400 0.000008 0.000006 -0.698155 5.022940 -68.031500 -11.754300 -0.000006 -0.000006 -0.012230 0.287275 -4.897300
0.000000 0.000000 0.000000 0.000000 0.000000 -0.000000 0.102240 92.979000 -1.576670 86.540700 -2.605080 1.306480 15.735700 0.000005 -0.000001 78.694600 87.060300 -76.325700 8.984550 -0.406207 -0.000000 -1.968540 -1.353400 4.713940 16.377300 -0.000001 -0.000001 4.917420 4.138390 0.340080 6.456720 -0.000001 -0.000000 2.120610 6.432360 -6.150390 12.994200 -0.242716 4.980390 -92.634300 8.360760 -72.441300 5.348090 -0.000007 -0.000001 -73.706000 30.065400 0.435005 24.328600 0.000019 0.000005 12.934300 27.818600 -26.202700 22.291600 -0.000001 0.000005 -3.616340 5.042040 6.412060 12.994500 -0.242716 -4.980390 88.775400 3.896010 -72.535900 -5.348130 -0.000001 -0.000004 -71.489500 15.188800 -1.697050 -24.328900 0.000322 -0.000009 2.932620 5.498880 -28.137300 -22.291500 -0.000108 -0.000004 1.958650 5.211100 2.439790 -2.192480 -6.469440 -0.000000 -176.687000 -1.629850 -3.294830 39.081100 -0.000007 -0.000012 0.209996 -0.563883 20.426200 40.985400 -0.000006 -0.000013 2.942210 7.788110 -71.062200 11.754300 -0.000000 0.000003 -0.000119 0.169612 -9.697330 -2.192510 6.469440 -0.000001 -175.381000 5.136940 -178.895000 -39.081100 -0.002282 -0.040193 0.033282 -0.129916 12.981200 -40.985400 0.000008 0.000006 -0.539947 4.947580 -68.024600 -11.754300 -0.000006 -0.000006 -0.011832 0.284516 -5.010300
